<svg width="36" height="36" viewBox="0 0 36 36" fill="none" xmlns="http://www.w3.org/2000/svg">
<g clip-path="url(#clip0_31_2923)">
<path d="M35.9503 22.5631C35.7798 22.0368 35.2091 21.7552 34.6828 21.9256L18.7544 27.203C17.9984 25.98 16.6494 25.1721 15.1077 25.1721C15.0484 25.1721 14.9891 25.1721 14.9298 25.1721C14.8557 25.1721 14.7741 25.1795 14.7 25.1869L8.37755 6.14543C8.29602 5.89342 8.11072 5.68589 7.87353 5.56729L1.44731 2.33565C0.9507 2.09105 0.350326 2.28376 0.105729 2.78037C-0.138868 3.27698 0.0538447 3.87735 0.550451 4.12195L6.61349 7.16829L12.8025 25.8466C12.4912 26.0467 12.2022 26.2839 11.9427 26.5656C11.1645 27.4105 10.7642 28.5075 10.8087 29.649C10.9051 31.9615 12.7877 33.7701 15.1003 33.7701C15.1596 33.7701 15.2189 33.7701 15.2782 33.7701C17.6426 33.6737 19.4882 31.6725 19.3918 29.3006C19.3918 29.2413 19.3844 29.1746 19.377 29.1153L35.3129 23.8379C35.8391 23.6601 36.1208 23.0893 35.9503 22.5631ZM15.1966 31.7614C13.9218 31.8133 12.8618 30.8275 12.8099 29.5674C12.7877 28.9522 13.0027 28.3667 13.4177 27.922C13.8328 27.4698 14.3961 27.2104 15.0113 27.1882C15.041 27.1882 15.078 27.1882 15.1077 27.1882C16.3381 27.1882 17.3461 28.1517 17.398 29.3896C17.4425 30.6422 16.4567 31.7095 15.1966 31.7614Z" fill="#33395B"/>
<path d="M16.9309 24.216C17.0717 24.6384 17.4645 24.9053 17.8796 24.9053C17.9834 24.9053 18.0871 24.8905 18.1909 24.8534L33.5783 19.7539C33.8303 19.6724 34.0378 19.4871 34.1564 19.2499C34.275 19.0127 34.2973 18.7385 34.2157 18.4865L29.1681 3.23251C29.0866 2.9805 28.9013 2.77296 28.6641 2.65437C28.4269 2.53578 28.1527 2.51354 27.9007 2.59507L20.207 5.15222L12.5133 7.70196C11.9871 7.87244 11.7054 8.44317 11.8759 8.96942L16.9309 24.216ZM19.8883 7.36101L21.1113 11.0596C21.2521 11.4821 21.6449 11.7489 22.06 11.7489C22.1638 11.7489 22.2675 11.7341 22.3713 11.697C22.8976 11.5266 23.1792 10.9558 23.0087 10.4296L21.7858 6.73099L27.582 4.81127L32.0069 18.1677L18.517 22.6372L14.0921 9.28814L19.8883 7.36101Z" fill="#264796"/>
</g>
<defs>
<clipPath id="clip0_31_2923">
<rect width="36" height="36" fill="white"/>
</clipPath>
</defs>
</svg>
