<svg width="32" height="34" viewBox="0 0 32 34" fill="none" xmlns="http://www.w3.org/2000/svg">
<g clip-path="url(#clip0_31_2873)">
<path d="M26.999 2.71382H24.1923V1H22.4785V2.71382H16.9561V1H15.2423V2.71382H9.71998V1H8.00616V2.71382H5.00024C2.71537 2.71382 0.856445 4.57274 0.856445 6.85761V32.1432C0.856445 32.6166 1.24011 33.0001 1.71336 33.0001H30.2858C30.7591 33.0001 31.1427 32.6166 31.1427 32.1432V6.85761C31.1427 4.57274 29.2838 2.71382 26.999 2.71382ZM2.57027 31.2862V6.85761C2.57027 5.51775 3.66037 4.42764 5.00024 4.42764H8.00616V5.57019H9.71998V4.42764H15.2423V5.57019H16.9561V4.42764H22.4783V5.57019H24.1922V4.42764H26.9988C28.3387 4.42764 29.4288 5.51775 29.4288 6.85761V10.6046H6.28789C5.81464 10.6046 5.43097 10.9881 5.43097 11.4615C5.43097 11.9349 5.81464 12.3184 6.28789 12.3184H29.4289V31.2863H2.57027V31.2862Z" fill="#33395B" stroke="#33395B" stroke-width="0.2"/>
<path d="M12.39 24.583L15.575 21.84C15.8697 21.58 16.121 21.3547 16.329 21.164C16.537 20.9647 16.706 20.7827 16.836 20.618C16.966 20.4533 17.057 20.293 17.109 20.137C17.1697 19.981 17.2 19.812 17.2 19.63C17.2 19.2573 17.096 18.9583 16.888 18.733C16.68 18.499 16.3723 18.382 15.965 18.382C15.497 18.382 15.1287 18.512 14.86 18.772C14.6 19.0233 14.47 19.461 14.47 20.085H12.52C12.52 19.0537 12.8103 18.239 13.391 17.641C13.9803 17.043 14.8383 16.744 15.965 16.744C16.4937 16.744 16.953 16.8177 17.343 16.965C17.7417 17.1037 18.0753 17.303 18.344 17.563C18.6127 17.8143 18.812 18.1177 18.942 18.473C19.0807 18.8283 19.15 19.214 19.15 19.63C19.15 19.942 19.0937 20.241 18.981 20.527C18.8683 20.8043 18.7123 21.073 18.513 21.333C18.3223 21.593 18.097 21.8487 17.837 22.1C17.577 22.3427 17.2997 22.5853 17.005 22.828L15.133 24.388H19.28V26H12.39V24.583Z" fill="#264796"/>
</g>
<defs>
<clipPath id="clip0_31_2873">
<rect width="32" height="34" fill="white"/>
</clipPath>
</defs>
</svg>
