<svg width="40" height="24" viewBox="0 0 40 24" fill="none" xmlns="http://www.w3.org/2000/svg">
<g clip-path="url(#clip0_30_2845)">
<path d="M22.6383 2.26868H14.5049C14.4541 2.26868 14.3852 2.29531 14.3212 2.35114C14.2578 2.40656 14.2175 2.47497 14.2073 2.53337L10.8526 21.7313H34.3936C34.4444 21.7313 34.5133 21.7047 34.5773 21.6489C34.6407 21.5935 34.681 21.5251 34.6912 21.4667L38.0459 2.26885H29.6612L28.736 7.56368L28.5883 7.53786L28.736 7.56369C28.6925 7.81275 28.5325 8.02605 28.3055 8.13599C28.3055 8.13599 28.3055 8.13599 28.3055 8.136L28.2401 8.00099C28.0569 8.08972 27.8426 8.08386 27.6642 7.98521L22.6383 2.26868ZM22.6383 2.26868L21.7608 7.2909L21.7608 7.29092C21.7106 7.5782 21.8224 7.87024 22.052 8.04916L22.0521 8.04918C22.1912 8.15754 22.3596 8.21342 22.5295 8.21342C22.6403 8.21342 22.7516 8.18963 22.8557 8.1414L22.6383 2.26868ZM39.2576 1.24046L39.2576 1.24044C38.9686 0.89303 38.5346 0.696252 38.0693 0.696252H29.006H23.5681H14.5049C13.6251 0.696252 12.8233 1.38323 12.6701 2.26073C12.6701 2.26074 12.6701 2.26075 12.6701 2.26076L9.31409 21.4666C9.23207 21.9359 9.34879 22.408 9.64097 22.7594L9.64098 22.7594C9.92995 23.1068 10.364 23.3036 10.8292 23.3036H34.3938C35.2735 23.3036 36.0754 22.6166 36.2285 21.7391L39.5846 2.53325L39.5846 2.53319C39.6664 2.06393 39.5498 1.59186 39.2576 1.24046ZM27.3852 6.2231C27.1993 6.16138 26.9954 6.1719 26.8146 6.25562L26.8146 6.25564L26.1857 6.54721L25.7042 6.28068L25.7042 6.28065C25.4873 6.16072 25.2269 6.15146 25.0022 6.25553L25.0022 6.25555L24.3729 6.54722L23.8915 6.2808C23.7817 6.22 23.6608 6.18763 23.5389 6.18397L24.2231 2.26851H28.0762L27.3852 6.2231Z" fill="#FFFFFF" stroke="#33395B" stroke-width="0.3"/>
<path d="M10.6938 6.91108C10.6938 6.47819 10.3458 6.1249 9.91336 6.1249H2.51618C2.0838 6.1249 1.73574 6.47819 1.73574 6.91108C1.73574 7.34396 2.0838 7.69725 2.51618 7.69725H9.91336C10.3458 7.69725 10.6938 7.34396 10.6938 6.91108Z" fill="#264796" stroke="#264796" stroke-width="0.3"/>
<path d="M8.56897 14.268H5.20661C4.77422 14.268 4.42617 14.6213 4.42617 15.0541C4.42617 15.487 4.77422 15.8403 5.20661 15.8403H8.56897C9.00136 15.8403 9.34941 15.487 9.34941 15.0541C9.34941 14.6213 9.00136 14.268 8.56897 14.268Z" fill="#264796" stroke="#264796" stroke-width="0.3"/>
<path d="M10.0211 10.9826C10.0211 10.5497 9.67307 10.1964 9.24068 10.1964H3.86091C3.42852 10.1964 3.08047 10.5497 3.08047 10.9826C3.08047 11.4155 3.42852 11.7688 3.86091 11.7688H9.24068C9.67307 11.7688 10.0211 11.4155 10.0211 10.9826Z" fill="#264796" stroke="#264796" stroke-width="0.3"/>
<path d="M11.3665 2.8396C11.3665 2.40672 11.0184 2.05343 10.5861 2.05343H1.17146C0.739069 2.05343 0.391016 2.40672 0.391016 2.8396C0.391016 3.27249 0.739069 3.62578 1.17146 3.62578H10.5861C11.0184 3.62578 11.3665 3.27249 11.3665 2.8396Z" fill="#264796" stroke="#264796" stroke-width="0.3"/>
</g>
<defs>
<clipPath id="clip0_30_2845">
<rect width="40" height="24" fill="white"/>
</clipPath>
</defs>
</svg>
