<svg width="32" height="32" viewBox="0 0 32 32" fill="none" xmlns="http://www.w3.org/2000/svg">
<g clip-path="url(#clip0_31_2898)">
<path d="M8 15.4756V24H16.5244L14.7467 22.2223H9.77778V17.2534L8 15.4756Z" fill="#33395B"/>
<path d="M30.9951 28.7022L28.444 26.1156V28.4445H3.55514V24.7556H5.33291V23.3333H3.55514V17.4222H5.33291V16H3.55514V10.3111H5.33291V8.8889H3.55514V3.92001L17.724 18.0089V15.5022L3.29736 1.14668C3.17303 1.02132 3.01418 0.935822 2.84108 0.901094C2.66797 0.866365 2.48844 0.883975 2.32538 0.951679C2.16231 1.01938 2.02311 1.13411 1.92551 1.28124C1.82791 1.42837 1.77633 1.60123 1.77736 1.77779V29.3333C1.77736 29.5691 1.87101 29.7952 2.03771 29.9619C2.20441 30.1286 2.4305 30.2222 2.66625 30.2222H30.364C30.5406 30.2233 30.7134 30.1717 30.8606 30.0741C31.0077 29.9765 31.1224 29.8373 31.1901 29.6742C31.2578 29.5112 31.2754 29.3316 31.2407 29.1585C31.206 28.9854 31.1205 28.8266 30.9951 28.7022Z" fill="#33395B"/>
<path d="M21.3334 26.6667H24.889C25.3605 26.6667 25.8127 26.4794 26.1461 26.146C26.4795 25.8126 26.6668 25.3604 26.6668 24.8889V7.73335L24.6223 3.97335C24.4642 3.69941 24.2359 3.47262 23.9609 3.31637C23.6859 3.16011 23.3742 3.08006 23.0579 3.08446C22.7345 3.08703 22.4179 3.17778 22.1422 3.34694C21.8665 3.51611 21.6422 3.75727 21.4934 4.04446L19.5557 7.75113V24.8889C19.5557 25.3604 19.743 25.8126 20.0764 26.146C20.4098 26.4794 20.8619 26.6667 21.3334 26.6667ZM21.3334 8.17779L23.0579 4.82668L24.889 8.18668V21.3334H21.3334V8.17779ZM21.3334 22.7822H24.889V24.9511H21.3334V22.7822Z" fill="#264796"/>
</g>
<defs>
<clipPath id="clip0_31_2898">
<rect width="32" height="32" fill="white"/>
</clipPath>
</defs>
</svg>
