<svg width="59" height="36" viewBox="0 0 59 36" fill="none" xmlns="http://www.w3.org/2000/svg">
<g clip-path="url(#clip0_439_1729)">
<path d="M57.7211 1.82204L57.721 1.82202C57.299 1.31041 56.6646 1.02023 55.9842 1.02023H42.7699H34.8414H21.6272C20.3406 1.02023 19.1705 2.0327 18.9472 3.32294C18.9472 3.32295 18.9472 3.32296 18.9472 3.32298L14.054 31.5556C13.9344 32.2457 14.1046 32.9403 14.5312 33.4576L14.5312 33.4576C14.9533 33.9692 15.5877 34.2594 16.2681 34.2594H50.6252C51.9118 34.2594 53.0818 33.2469 53.3052 31.9567C53.3052 31.9567 53.3052 31.9566 53.3052 31.9566L58.1983 3.72402L58.1983 3.72394C58.3177 3.03387 58.1477 2.33937 57.7211 1.82204ZM40.4025 9.14296C40.1317 9.05403 39.8351 9.07025 39.5721 9.19308L39.572 9.19312L38.6581 9.62032L37.9589 9.23011L37.9588 9.23007C37.641 9.05283 37.2591 9.0391 36.9296 9.19296L36.9295 9.19299L36.015 9.62034L35.3159 9.23028C35.1567 9.14135 34.9812 9.09354 34.8043 9.08735L35.8008 3.33779H41.4086L40.4025 9.14296ZM21.6272 3.33804H33.4802L32.2013 10.7173L32.2013 10.7173C32.1281 11.1399 32.2911 11.5701 32.6272 11.8341L32.6272 11.8342C32.8309 11.9941 33.0777 12.0768 33.327 12.0768C33.4896 12.0768 33.6529 12.0416 33.8054 11.9703L34.7195 11.5431L35.4186 11.9332C35.7362 12.1107 36.1184 12.1243 36.4479 11.9705L36.448 11.9705L37.3625 11.5431L38.0619 11.9334C38.3799 12.1108 38.7619 12.1243 39.0913 11.9705L39.0914 11.9705L40.0053 11.5433L40.7045 11.9335L40.7045 11.9335C41.0284 12.1141 41.4183 12.125 41.7513 11.9623C42.084 11.7999 42.3176 11.4852 42.3811 11.1188L43.7296 3.33829H55.9444L51.0539 31.5557C51.0539 31.5557 51.0539 31.5557 51.0539 31.5557C51.0391 31.6411 50.9807 31.7411 50.8888 31.822C50.7961 31.9036 50.6969 31.9418 50.625 31.9418H16.3077L21.1982 3.72419C21.1982 3.72418 21.1982 3.72416 21.1982 3.72414C21.2131 3.63874 21.2715 3.53876 21.3634 3.45787C21.4561 3.37624 21.5552 3.33804 21.6272 3.33804Z" fill="#33395B" stroke="#33395B" stroke-width="0.447341"/>
<path d="M16.0761 10.1593C16.0761 9.52297 15.5682 9.00045 14.9333 9.00045H4.14819C3.51326 9.00045 3.00533 9.52297 3.00533 10.1593C3.00533 10.7956 3.51326 11.3181 4.14819 11.3181H14.9333C15.5682 11.3181 16.0761 10.7956 16.0761 10.1593Z" fill="#264796" stroke="#264796" stroke-width="0.447341"/>
<path d="M12.9724 20.9707H8.07006C7.43514 20.9707 6.92721 21.4932 6.92721 22.1295C6.92721 22.7658 7.43514 23.2884 8.07006 23.2884H12.9724C13.6073 23.2884 14.1152 22.7658 14.1152 22.1295C14.1152 21.4932 13.6073 20.9707 12.9724 20.9707Z" fill="#264796" stroke="#264796" stroke-width="0.447341"/>
<path d="M15.0957 16.1444C15.0957 15.5081 14.5878 14.9856 13.9528 14.9856H6.10913C5.4742 14.9856 4.96627 15.5081 4.96627 16.1444C4.96627 16.7807 5.4742 17.3032 6.10913 17.3032H13.9528C14.5878 17.3032 15.0957 16.7807 15.0957 16.1444Z" fill="#264796" stroke="#264796" stroke-width="0.447341"/>
<path d="M17.0566 4.17419C17.0566 3.53786 16.5487 3.01534 15.9137 3.01534H2.18725C1.55232 3.01534 1.0444 3.53786 1.0444 4.17419C1.0444 4.81051 1.55232 5.33303 2.18725 5.33303H15.9137C16.5487 5.33303 17.0566 4.81051 17.0566 4.17419Z" fill="#264796" stroke="#264796" stroke-width="0.447341"/>
</g>
<defs>
<clipPath id="clip0_439_1729">
<rect width="58.32" height="35.28" fill="white" transform="translate(0.47998)"/>
</clipPath>
</defs>
</svg>
