<svg width="48" height="48" viewBox="0 0 48 48" fill="none" xmlns="http://www.w3.org/2000/svg">
<path d="M36.4288 5.14282C36.8443 5.14282 37.2302 5.34319 37.4699 5.67396L37.5633 5.8235L44.4319 18.7025L44.5055 18.878L44.5254 18.9428L44.5545 19.0753L44.5704 19.2262L44.5668 19.3966L44.5716 19.2857C44.5716 19.4659 44.5346 19.6375 44.4676 19.7933L44.4182 19.8955L44.3486 20.0096L44.2583 20.1271L25.0286 42.3509C24.857 42.5813 24.622 42.7332 24.3667 42.8062L24.2673 42.8304L24.1003 42.8535L23.9999 42.8571L23.8274 42.8455L23.6815 42.8179L23.5044 42.7597L23.4604 42.7388C23.3056 42.6704 23.1633 42.5684 23.0443 42.4345L3.72143 20.1022L3.61496 19.952L3.53283 19.7924L3.47338 19.6222L3.43371 19.3975L3.43323 19.1791L3.4587 19.0099L3.47514 18.9427L3.53326 18.7779L3.58012 18.6807L10.4373 5.8235C10.6328 5.4569 10.9912 5.21071 11.3958 5.15489L11.5717 5.14282H36.4288ZM30.6962 20.5714H17.2991L24.0019 37.9885L30.6962 20.5714ZM14.546 20.5714H7.52428L20.1636 35.1737L14.546 20.5714ZM40.4711 20.5714H33.4545L27.8436 35.1617L40.4711 20.5714ZM17.1842 7.71254H12.3414L6.854 18H14.4397L17.1842 7.71254ZM28.1539 7.71254H19.8448L17.1003 18H30.8968L28.1539 7.71254ZM35.6574 7.71254H30.8145L33.5591 18H41.1414L35.6574 7.71254Z" fill="#264796"/>
</svg>
