<svg width="56" height="56" viewBox="0 0 56 56" fill="none" xmlns="http://www.w3.org/2000/svg">
<g clip-path="url(#clip0_439_1766)">
<path d="M26.9264 14.626C25.081 14.626 23.5797 16.1273 23.5797 17.9727C23.5797 19.8181 25.081 21.3194 26.9264 21.3194C28.7717 21.3194 30.273 19.8181 30.273 17.9727C30.273 16.1273 28.7717 14.626 26.9264 14.626ZM26.9264 19.3405C26.1722 19.3405 25.5586 18.7269 25.5586 17.9727C25.5586 17.2185 26.1722 16.6049 26.9264 16.6049C27.6806 16.6049 28.2941 17.2185 28.2941 17.9727C28.2941 18.7269 27.6805 19.3405 26.9264 19.3405Z" fill="#264796"/>
<path d="M55.0106 15.071H51.6429C51.562 11.9473 48.9977 9.43066 45.8549 9.43066H42.8377V7.2895C42.8377 6.74306 42.3948 6.30005 41.8483 6.30005C41.3017 6.30005 40.8588 6.74306 40.8588 7.2895V9.43053H10.7879V7.2895C10.7879 6.74306 10.345 6.30005 9.79844 6.30005C9.25187 6.30005 8.80899 6.74306 8.80899 7.2895V9.43053H5.79183C2.59816 9.43066 0 12.0288 0 15.2225V27.6939C0 29.5968 1.54816 31.145 3.45106 31.145H5.06043V31.6026H3.61346C3.06689 31.6026 2.62402 32.0456 2.62402 32.5921C2.62402 33.1385 3.06689 33.5815 3.61346 33.5815H5.06057V34.7889H3.45106C1.54816 34.7888 0 36.3369 0 38.2398V48.7107C0 49.2571 0.442877 49.7001 0.989448 49.7001H50.6572C51.2038 49.7001 51.6467 49.2571 51.6467 48.7107V30.9014H55.0106C55.5571 30.9014 56 30.4584 56 29.912V16.0605C56 15.5139 55.5571 15.071 55.0106 15.071ZM7.03933 33.5814H8.48643C9.033 33.5814 9.47588 33.1384 9.47588 32.5919C9.47588 32.0455 9.033 31.6025 8.48643 31.6025H7.03933V31.1448H8.46137C10.3643 31.1448 11.9123 29.5967 11.9123 27.6938V27.2151C11.9123 26.2815 12.6718 25.5221 13.6054 25.5221H30.1692C31.1028 25.5221 31.8623 26.2816 31.8623 27.2151V33.0956C31.8623 34.0291 31.1028 34.7886 30.1692 34.7886H7.03933V33.5814ZM49.6678 47.7211H1.9789V38.2397C1.9789 37.428 2.63932 36.7675 3.45106 36.7675H30.1692C32.194 36.7675 33.8412 35.1203 33.8412 33.0956V27.2151C33.8412 25.1903 32.194 23.5432 30.1692 23.5432H13.6056C11.5808 23.5432 9.93353 25.1905 9.93353 27.2151V27.6938C9.93353 28.5055 9.27311 29.1659 8.4615 29.1659H3.45106C2.63932 29.1659 1.9789 28.5055 1.9789 27.6938V15.2224C1.9789 13.1199 3.68945 11.4094 5.79183 11.4094H45.8549C47.9574 11.4094 49.6678 13.1199 49.6678 15.2224V47.7211ZM54.0211 28.9225H51.6467V17.0498H54.0211V28.9225Z" fill="#33395B"/>
<path d="M45.8905 22.5771H39.4587C38.9121 22.5771 38.4692 23.0202 38.4692 23.5666C38.4692 24.113 38.9121 24.556 39.4587 24.556H45.8905C46.4371 24.556 46.8799 24.113 46.8799 23.5666C46.8799 23.0202 46.4369 22.5771 45.8905 22.5771Z" fill="#33395B"/>
<path d="M45.8905 19.0286H39.4587C38.9121 19.0286 38.4692 19.4716 38.4692 20.018C38.4692 20.5645 38.9121 21.0075 39.4587 21.0075H45.8905C46.4371 21.0075 46.8799 20.5645 46.8799 20.018C46.8799 19.4716 46.4369 19.0286 45.8905 19.0286Z" fill="#33395B"/>
<path d="M45.8905 15.48H39.4587C38.9121 15.48 38.4692 15.923 38.4692 16.4694C38.4692 17.0159 38.9121 17.4589 39.4587 17.4589H45.8905C46.4371 17.4589 46.8799 17.0159 46.8799 16.4694C46.8799 15.923 46.4369 15.48 45.8905 15.48Z" fill="#33395B"/>
<path d="M20.7007 14.755C20.6999 14.7542 20.699 14.7535 20.6982 14.7527C19.8391 13.8947 18.6973 13.4221 17.4829 13.4221C16.2674 13.4221 15.1246 13.8955 14.2652 14.755C13.4056 15.6145 12.9323 16.7572 12.9323 17.9728C12.9323 19.1882 13.4056 20.331 14.2651 21.1905C15.1246 22.05 16.2674 22.5233 17.4829 22.5233C18.6984 22.5233 19.8411 22.05 20.7006 21.1905C20.7007 21.1905 20.7007 21.1905 20.7007 21.1905C22.474 19.4171 22.4749 16.5323 20.7032 14.7579C20.7023 14.7568 20.7017 14.7559 20.7007 14.755ZM15.6646 16.1542C16.1503 15.6684 16.796 15.401 17.4829 15.401C17.8245 15.401 18.1559 15.4674 18.4626 15.5938L15.104 18.9523C14.9778 18.6457 14.9114 18.3143 14.9114 17.9727C14.9113 17.2857 15.1788 16.6399 15.6646 16.1542ZM19.3015 19.7911C18.8156 20.2769 18.1699 20.5443 17.4831 20.5443C17.1414 20.5443 16.8101 20.4779 16.5034 20.3517L19.8608 16.9943C20.2423 17.9253 20.0563 19.0362 19.3015 19.7911Z" fill="#264796"/>
</g>
<defs>
<clipPath id="clip0_439_1766">
<rect width="56" height="56" fill="white"/>
</clipPath>
</defs>
</svg>
