<svg width="44" height="44" viewBox="0 0 44 44" fill="none" xmlns="http://www.w3.org/2000/svg">
<path d="M37.7768 0H6.22305C5.73905 0 5.34656 0.392406 5.34656 0.876494V43.1235C5.34656 43.6076 5.73905 44 6.22305 44H37.7768C38.2608 44 38.6533 43.6076 38.6533 43.1235V0.876494C38.6533 0.392406 38.2608 0 37.7768 0ZM36.9003 42.247H7.09955V1.75299H36.9003V42.247Z" fill="#33395B"/>
<path d="M11.0437 14.4622H18.6692C19.1532 14.4622 19.5457 14.0698 19.5457 13.5857V5.96023C19.5457 5.47615 19.1532 5.08374 18.6692 5.08374H11.0437C10.5597 5.08374 10.1672 5.47615 10.1672 5.96023V13.5857C10.1672 14.0698 10.5597 14.4622 11.0437 14.4622ZM11.9202 6.83673H17.7927V12.7092H11.9202V6.83673Z" fill="#33395B"/>
<path d="M11.0437 26.8206H18.6692C19.1532 26.8206 19.5457 26.4282 19.5457 25.9441V24.2788C19.5457 23.7947 19.1532 23.4023 18.6692 23.4023C18.1852 23.4023 17.7927 23.7947 17.7927 24.2788V25.0676H11.9202V19.1951H17.3545C17.8385 19.1951 18.231 18.8027 18.231 18.3186C18.231 17.8345 17.8385 17.4421 17.3545 17.4421H11.0437C10.5597 17.4421 10.1672 17.8345 10.1672 18.3186V25.9441C10.1672 26.4282 10.5597 26.8206 11.0437 26.8206Z" fill="#264796"/>
<path d="M11.0437 39.0916H18.6692C19.1532 39.0916 19.5457 38.6992 19.5457 38.2151V30.5896C19.5457 30.1055 19.1532 29.7131 18.6692 29.7131H11.0437C10.5597 29.7131 10.1672 30.1055 10.1672 30.5896V38.2151C10.1672 38.6992 10.5597 39.0916 11.0437 39.0916ZM11.9202 31.4661H17.7927V37.3386H11.9202V31.4661Z" fill="#33395B"/>
<path d="M28.6613 8.6773H33.0438C33.5278 8.6773 33.9202 8.2849 33.9202 7.80081C33.9202 7.31672 33.5278 6.92432 33.0438 6.92432H28.6613C28.1773 6.92432 27.7848 7.31672 27.7848 7.80081C27.7848 8.2849 28.1773 8.6773 28.6613 8.6773Z" fill="#33395B"/>
<path d="M23.49 8.6773H24.9801C25.4641 8.6773 25.8566 8.2849 25.8566 7.80081C25.8566 7.31672 25.4641 6.92432 24.9801 6.92432H23.49C23.006 6.92432 22.6135 7.31672 22.6135 7.80081C22.6135 8.2849 23.006 8.6773 23.49 8.6773Z" fill="#33395B"/>
<path d="M23.49 12.2708H33.0438C33.5278 12.2708 33.9203 11.8784 33.9203 11.3943C33.9203 10.9102 33.5278 10.5178 33.0438 10.5178H23.49C23.006 10.5178 22.6135 10.9102 22.6135 11.3943C22.6135 11.8784 23.006 12.2708 23.49 12.2708Z" fill="#33395B"/>
<path d="M33.0438 19.3706H28.6613C28.1773 19.3706 27.7848 19.763 27.7848 20.2471C27.7848 20.7312 28.1773 21.1236 28.6613 21.1236H33.0438C33.5278 21.1236 33.9202 20.7312 33.9202 20.2471C33.9202 19.763 33.5278 19.3706 33.0438 19.3706Z" fill="#264796"/>
<path d="M23.49 21.1236H24.9801C25.4641 21.1236 25.8566 20.7312 25.8566 20.2471C25.8566 19.763 25.4641 19.3706 24.9801 19.3706H23.49C23.006 19.3706 22.6135 19.763 22.6135 20.2471C22.6135 20.7312 23.006 21.1236 23.49 21.1236Z" fill="#264796"/>
<path d="M23.49 24.7171H33.0438C33.5278 24.7171 33.9203 24.3247 33.9203 23.8406C33.9203 23.3565 33.5278 22.9641 33.0438 22.9641H23.49C23.006 22.9641 22.6135 23.3565 22.6135 23.8406C22.6135 24.3247 23.006 24.7171 23.49 24.7171Z" fill="#264796"/>
<path d="M33.0438 31.5537H28.6613C28.1773 31.5537 27.7848 31.9461 27.7848 32.4302C27.7848 32.9143 28.1773 33.3067 28.6613 33.3067H33.0438C33.5278 33.3067 33.9202 32.9143 33.9202 32.4302C33.9202 31.9461 33.5278 31.5537 33.0438 31.5537Z" fill="#33395B"/>
<path d="M23.49 33.3067H24.9801C25.4641 33.3067 25.8566 32.9143 25.8566 32.4302C25.8566 31.9461 25.4641 31.5537 24.9801 31.5537H23.49C23.006 31.5537 22.6135 31.9461 22.6135 32.4302C22.6135 32.9143 23.006 33.3067 23.49 33.3067Z" fill="#33395B"/>
<path d="M23.49 36.9004H33.0438C33.5278 36.9004 33.9203 36.508 33.9203 36.024C33.9203 35.5399 33.5278 35.1475 33.0438 35.1475H23.49C23.006 35.1475 22.6135 35.5399 22.6135 36.024C22.6135 36.508 23.006 36.9004 23.49 36.9004Z" fill="#33395B"/>
<path d="M14.191 20.709C13.8412 20.3746 13.2862 20.3872 12.9518 20.7372C12.6173 21.0871 12.63 21.642 12.9799 21.9764L15.2009 24.1099C15.3721 24.2811 15.5964 24.3666 15.8207 24.3666C16.045 24.3666 16.2693 24.2811 16.4404 24.1099L21.6556 18.8948C21.9978 18.5525 21.9978 17.9975 21.6556 17.6551C21.3132 17.3129 20.7584 17.3129 20.4159 17.6551L15.8126 22.2585L14.191 20.709Z" fill="#264796"/>
</svg>
