<svg width="50" height="50" viewBox="0 0 50 50" fill="none" xmlns="http://www.w3.org/2000/svg">
<g clip-path="url(#clip0_439_1777)">
<path d="M49.8148 48.3933L16.1413 0.434115C15.8856 0.0698292 15.4231 -0.0865994 14.9987 0.0474822C14.5743 0.181564 14.2858 0.575237 14.2858 1.02044V48.9796C14.2858 49.5432 14.7426 50 15.3062 50H48.9796C49.3604 50 49.7094 49.788 49.8851 49.4502C50.0607 49.1124 50.0335 48.7048 49.8148 48.3933ZM16.3266 47.9592V44.898H19.3878V42.8572H16.3266V37.7551H19.3878V35.7143H16.3266V30.6123H19.3878V28.5715H16.3266V23.4694H19.3878V21.4286H16.3266V16.3266H19.3878V14.2857H16.3266V4.24952L47.0164 47.9592H16.3266Z" fill="#33395B"/>
<path d="M22.9591 40.8164H33.6734C34.0599 40.8164 34.4132 40.598 34.5861 40.2523C34.7589 39.9066 34.7216 39.4929 34.4897 39.1837L23.7755 24.898C23.5119 24.5466 23.0532 24.4032 22.6365 24.5422C22.2198 24.6811 21.9387 25.0711 21.9387 25.5103V39.796C21.9387 40.3596 22.3956 40.8164 22.9591 40.8164ZM23.9795 28.5715L31.6326 38.7756H23.9795V28.5715Z" fill="#33395B"/>
<path d="M11.2245 0H1.02041C0.456837 0 0 0.456837 0 1.02041V48.9796C0 49.5432 0.456837 50 1.02041 50H11.2245C11.7881 50 12.2449 49.5432 12.2449 48.9796V1.02041C12.2449 0.456837 11.7881 0 11.2245 0ZM10.2041 47.9592H2.04082V43.3673H6.12245V41.3265H2.04082V35.2041H6.12245V33.1633H2.04082V26.0204H6.12245V23.9796H2.04082V16.8367H6.12245V14.7959H2.04082V8.67347H6.12245V6.63265H2.04082V2.04082H10.2041V47.9592Z" fill="#264796"/>
</g>
<defs>
<clipPath id="clip0_439_1777">
<rect width="50" height="50" fill="white"/>
</clipPath>
</defs>
</svg>
