<svg width="122" height="27" viewBox="0 0 122 27" fill="none" xmlns="http://www.w3.org/2000/svg">
<path fill-rule="evenodd" clip-rule="evenodd" d="M20.7683 26.2668V10.2349V9.78755H21.2103H34.9536H35.3956V10.2349V26.2668V26.7141H34.9536H33.3672H32.9251V26.2668V12.1356H23.2388V26.2668V26.7141H22.7968H21.2104H20.7684V26.2668H20.7683ZM37.7701 26.2668V10.2349V9.78755H38.2122H42.3714C43.123 9.78755 43.8776 9.79906 44.6334 9.91926C45.4038 10.0419 46.1504 10.2767 46.8488 10.7239L46.8491 10.7234C47.5889 11.1912 48.1541 11.8212 48.5381 12.5506C48.9356 13.3054 49.1377 14.162 49.1377 15.0511C49.1377 15.8668 48.9665 16.6504 48.6246 17.3548C48.2931 18.0379 47.8031 18.6411 47.1554 19.1209C46.4891 19.6177 45.7725 19.9012 45.023 20.06C44.2911 20.2149 43.5407 20.2495 42.7785 20.2495H40.2406V26.267V26.7143H39.7985H38.2122H37.7701V26.267V26.2668ZM40.2407 17.9011H42.5213C43.0652 17.9011 43.606 17.8909 44.1057 17.8106C44.5896 17.7326 45.0549 17.5875 45.4824 17.3184H45.4842C45.8517 17.0883 46.1402 16.7555 46.3405 16.3721C46.5548 15.9617 46.6672 15.4935 46.6672 15.0293C46.6672 14.4273 46.5123 13.8947 46.2256 13.4593L46.226 13.4591C45.9366 13.0207 45.5099 12.6742 44.9694 12.4479L44.9643 12.4461C44.167 12.1003 43.2576 12.1144 42.373 12.1282C42.1382 12.132 41.91 12.1356 41.8353 12.1356H40.2407V17.9011ZM64.8098 12.1133C66.3977 13.6707 67.4035 15.8183 67.4035 18.2183C67.4035 20.6537 66.412 22.8414 64.8198 24.4245C63.2154 26.0195 61.0017 26.9999 58.5788 26.9999C56.2144 26.9999 53.9881 26.0208 52.3672 24.4259C50.7837 22.8682 49.7756 20.7228 49.7756 18.3267C49.7756 15.8903 50.7628 13.7025 52.3512 12.1199C53.9496 10.5273 56.1572 9.54876 58.5788 9.54876C60.9614 9.54876 63.1892 10.5238 64.8098 12.1133ZM54.1061 13.8486C52.9594 14.9944 52.2464 16.5772 52.2464 18.3267C52.2464 20.0335 52.9742 21.5743 54.1157 22.6968C55.2882 23.8495 56.8957 24.5614 58.6003 24.5614C60.3501 24.5614 61.9374 23.8537 63.0843 22.7041C64.2255 21.5603 64.9328 19.9778 64.9328 18.2185C64.9328 16.5096 64.2089 14.9677 63.0712 13.8455C61.9043 12.6946 60.3031 11.984 58.6003 11.984C56.8516 11.984 55.2594 12.6966 54.1061 13.8487V13.8486ZM84.3481 14.8041H82.5901H82.3515L82.2205 14.6014C81.6908 13.7828 80.9288 13.1379 80.0587 12.691C79.1312 12.2145 78.0822 11.9623 77.0591 11.9623C75.3946 11.9623 73.8611 12.6899 72.7371 13.8236C71.5943 14.9762 70.8766 16.5466 70.8766 18.1967C70.8766 19.935 71.5977 21.5155 72.7352 22.6666C73.8902 23.8354 75.4733 24.5613 77.1662 24.5613C78.1538 24.5613 79.1325 24.294 80.0105 23.8254C80.9112 23.3447 81.7059 22.6522 82.2952 21.8194L82.4275 21.6324H82.6544H84.4125H85.1406L84.8044 22.2861C84.0794 23.6959 82.9519 24.8769 81.6125 25.7035C80.2788 26.5266 78.7339 26.9999 77.1661 26.9999C74.7134 26.9999 72.5184 26.0384 70.9381 24.451C69.3666 22.8723 68.4058 20.6775 68.4058 18.1967C68.4058 15.8001 69.3743 13.6362 70.9348 12.0698C72.5008 10.4976 74.6622 9.52715 77.0375 9.52715C77.8868 9.52715 78.74 9.64987 79.5615 9.89169C80.3668 10.1289 81.1389 10.4812 81.8439 10.9457L81.8457 10.9475C82.4297 11.3371 83.1105 11.8947 83.6787 12.5233C84.1516 13.0466 84.5504 13.623 84.7626 14.2031L84.9826 14.8042H84.3482L84.3481 14.8041ZM87.3685 26.2668V12.1356H84.1874H83.7453V11.6883V10.2349V9.78755H84.1874H93.0201H93.4621V10.2349V11.6883V12.1356H93.0201H89.8391V26.2668V26.7141H89.397H87.8107H87.3686V26.2668H87.3685ZM106.35 12.1133C107.938 13.6708 108.944 15.8183 108.944 18.2183C108.944 20.6537 107.953 22.8414 106.36 24.4245C104.756 26.0194 102.542 26.9999 100.119 26.9999C97.7549 26.9999 95.5286 26.0208 93.9078 24.4259C92.3242 22.8682 91.3162 20.7228 91.3162 18.3267C91.3162 15.8903 92.3033 13.7025 93.8917 12.1199C95.4901 10.5273 97.6975 9.54876 100.119 9.54876C102.502 9.54876 104.73 10.5238 106.35 12.1133ZM95.6465 13.8486C94.4996 14.9945 93.7868 16.5771 93.7868 18.3267C93.7868 20.0337 94.5146 21.5742 95.6561 22.6968C96.8285 23.8495 98.4362 24.5614 100.141 24.5614C101.89 24.5614 103.478 23.8537 104.625 22.7041C105.766 21.5603 106.473 19.9778 106.473 18.2185C106.473 16.5096 105.75 14.9678 104.612 13.8455C103.445 12.6946 101.844 11.984 100.141 11.984C98.392 11.984 96.7999 12.6966 95.6465 13.8487V13.8486ZM110.632 26.2668V10.2349V9.78755H111.074H115.234C115.985 9.78755 116.74 9.80017 117.495 9.92088C118.265 10.0442 119.013 10.2794 119.713 10.7252C120.452 11.1953 121.017 11.8255 121.401 12.5546C121.798 13.3083 122 14.1629 122 15.051C122 15.8661 121.829 16.6488 121.487 17.3527C121.155 18.036 120.665 18.6395 120.018 19.1207C119.351 19.6166 118.634 19.9001 117.885 20.0591C117.153 20.2142 116.403 20.2493 115.641 20.2493H113.103V26.2668V26.7141H112.661H111.074H110.632V26.2668ZM113.103 17.9011H115.383C115.927 17.9011 116.468 17.8906 116.968 17.81C117.453 17.7317 117.918 17.5868 118.345 17.3192L118.345 17.3183C118.714 17.0866 119.003 16.7536 119.203 16.3707C119.417 15.9605 119.529 15.493 119.529 15.0292C119.529 14.4301 119.375 13.9008 119.089 13.4669L119.09 13.466C118.799 13.0256 118.37 12.6767 117.828 12.446C117.023 12.1035 116.106 12.1164 115.213 12.1288C114.98 12.1323 114.754 12.1355 114.698 12.1355H113.103V17.901L113.103 17.9011Z" fill="#264796"/>
<path fill-rule="evenodd" clip-rule="evenodd" d="M8.99588 3.05176e-05C10.0668 3.05176e-05 10.8323 3.2785 10.9353 7.10282C11.0382 10.927 10.3159 13.598 8.99588 20.0023C7.64942 13.603 7.07916 11.1067 7.0567 7.10282C7.03404 3.0989 7.92512 3.05176e-05 8.99588 3.05176e-05V3.05176e-05Z" fill="#264796"/>
<path fill-rule="evenodd" clip-rule="evenodd" d="M7.14797 19.9499C4.80991 17.024 0.0516289 13.1142 0.000122226 8.7322C-0.000776146 3.90395 3.89886 0.000333546 8.99572 3.05176e-05C5.88096 0.000333546 3.52573 3.45163 3.52623 8.27978C3.52623 11.9318 5.57472 15.1215 7.14807 19.95L7.14797 19.9499Z" fill="#264796"/>
<path fill-rule="evenodd" clip-rule="evenodd" d="M10.8434 19.9499C13.1814 17.024 17.9397 13.1142 17.9912 8.7322C17.9921 3.90395 14.0926 0.000333546 8.99573 3.05176e-05C12.1104 0.000333546 14.4656 3.45163 14.4651 8.27978C14.4651 11.9318 12.4166 15.1215 10.8433 19.95L10.8434 19.9499Z" fill="#264796"/>
<path fill-rule="evenodd" clip-rule="evenodd" d="M8.99595 22.0394C10.2275 22.0394 11.226 23.0498 11.226 24.296C11.226 25.5421 10.2275 26.5526 8.99595 26.5526C7.76458 26.5526 6.76599 25.5421 6.76599 24.296C6.76599 23.0498 7.76458 22.0394 8.99595 22.0394Z" fill="#264796"/>
<path d="M21.8252 1.0067H20.8301V7.5912H21.8252V4.86647L22.0203 4.6691L24.3421 7.5912H25.6688L22.713 3.98799L25.6493 1.00659H24.3421L21.8252 3.63254V1.00659V1.0067ZM29.6197 0.888312C29.1304 0.891645 28.6784 0.978816 28.267 1.14983C27.8573 1.32104 27.4995 1.56114 27.1955 1.87053C26.8915 2.17992 26.6574 2.54022 26.4898 2.95315C26.3225 3.36779 26.238 3.81698 26.2346 4.30405C26.238 4.79102 26.3224 5.2401 26.4898 5.65313C26.6573 6.06778 26.8915 6.42808 27.1955 6.73737C27.4996 7.04676 27.8574 7.28686 28.267 7.45807C28.6784 7.62908 29.1304 7.71635 29.6197 7.71969C30.1109 7.71625 30.5612 7.62908 30.9726 7.45807C31.384 7.28686 31.7401 7.04676 32.0441 6.73737C32.348 6.42808 32.5838 6.06778 32.7513 5.65313C32.9172 5.2401 33.0033 4.79102 33.005 4.30405C33.0033 3.81698 32.9172 3.36779 32.7513 2.95315C32.5839 2.54022 32.348 2.17992 32.0441 1.87053C31.74 1.56114 31.3839 1.32104 30.9726 1.14983C30.5612 0.978816 30.1109 0.891544 29.6197 0.888312ZM29.6197 6.79161C29.2703 6.78989 28.9484 6.72909 28.6573 6.60899C28.3661 6.48727 28.1143 6.31606 27.9013 6.09555C27.6882 5.87505 27.524 5.61182 27.407 5.30909C27.29 5.00637 27.2315 4.67071 27.2298 4.30395C27.2315 3.93698 27.29 3.60133 27.407 3.2986C27.524 2.99588 27.6882 2.73254 27.9013 2.51214C28.1143 2.29002 28.3661 2.12063 28.6573 1.99881C28.9484 1.87871 29.2703 1.8178 29.6197 1.81608C29.971 1.8178 30.2912 1.87871 30.5823 1.99881C30.8734 2.12063 31.1253 2.28992 31.3383 2.51214C31.5513 2.73264 31.7156 2.99598 31.8326 3.2986C31.9496 3.60133 32.0081 3.93698 32.0098 4.30395C32.0081 4.67071 31.9496 5.00637 31.8326 5.30909C31.7156 5.61192 31.5513 5.87515 31.3383 6.09555C31.1253 6.31606 30.8734 6.48727 30.5823 6.60899C30.2912 6.72909 29.9709 6.78989 29.6197 6.79161ZM35.0731 7.5912L35.756 3.61284L37.6289 7.89716L39.5215 3.62274L40.1849 7.5912H41.1996L39.9704 0.513062L37.6876 5.62667L35.4243 0.513062L34.0585 7.5912H35.0731ZM42.5653 1.0067V7.5912H43.5605V1.95447H46.3505V7.5912H47.3456V1.0067H42.5654H42.5653ZM53.4134 7.5912H54.4865L51.4039 0.621748L48.165 7.5912H49.2381L49.9503 6.00182H52.7306L53.4134 7.5912ZM50.36 5.05415L51.3647 2.82305L52.3305 5.05415H50.36ZM56.301 1.00659H55.3059V7.5911H56.301V4.52092H59.0911V7.5911H60.0862V1.00659H59.0911V3.57335H56.301V1.00659ZM66.037 7.5911H67.0319V0.730131L62.6421 5.45879V1.00649H61.647V7.88726L66.037 3.1585V7.591V7.5911ZM68.0075 7.5911H69.2366L71.0122 4.95526H71.2463V7.5911H72.2413V1.00659H70.6414C70.5261 1.00508 70.3959 1.00831 70.2513 1.01811C70.1082 1.02639 69.957 1.04942 69.7993 1.0872C69.6415 1.12508 69.4839 1.1877 69.3261 1.27316C69.1685 1.35871 69.0188 1.4772 68.8758 1.62861C68.7506 1.76679 68.6498 1.91154 68.5782 2.06123C68.5051 2.21093 68.4531 2.36406 68.4221 2.52194C68.393 2.67992 68.3783 2.83961 68.3783 3.00072C68.3766 3.16204 68.3913 3.32486 68.4205 3.48941C68.4497 3.65224 68.5051 3.81193 68.5864 3.96648C68.6678 4.12112 68.7831 4.26587 68.9343 4.40253C69.0302 4.48476 69.1343 4.55718 69.2465 4.61799C69.3603 4.68061 69.4757 4.72991 69.5944 4.7694C69.7132 4.80728 69.827 4.83354 69.9392 4.84677L68.0076 7.5911H68.0075ZM71.2463 1.93457V4.02749H70.7C70.5976 4.02749 70.487 4.02082 70.3666 4.00597C70.2464 3.99122 70.1276 3.96476 70.0123 3.93031C69.8969 3.89577 69.7942 3.84971 69.7049 3.79042C69.6513 3.75436 69.596 3.70345 69.539 3.63587C69.4821 3.5685 69.4349 3.48274 69.3959 3.37911C69.3568 3.27395 69.3358 3.1489 69.3341 3.00072C69.3358 2.83618 69.3666 2.68982 69.4235 2.56153C69.482 2.43143 69.5569 2.32467 69.6462 2.24063C69.7341 2.15507 69.8333 2.09093 69.9455 2.04659C70.0578 2.00214 70.1812 1.97245 70.3162 1.95598C70.4511 1.94124 70.5991 1.93295 70.7584 1.93467H71.2462L71.2463 1.93457Z" fill="#264796"/>
</svg>
