<svg width="162" height="163" viewBox="0 0 162 163" fill="none" xmlns="http://www.w3.org/2000/svg">
<g opacity="0.5">
<path d="M152.145 43.835C151.343 40.6315 149.71 37.6964 147.411 35.326C145.112 32.9556 142.228 31.234 139.05 30.335C127.44 27.5 81 27.5 81 27.5C81 27.5 34.56 27.5 22.95 30.605C19.7724 31.504 16.8883 33.2256 14.589 35.596C12.2898 37.9664 10.6568 40.9015 9.85495 44.105C7.73015 55.8875 6.69079 67.8401 6.74995 79.8125C6.67421 91.8751 7.71363 103.919 9.85495 115.79C10.7389 118.894 12.4085 121.717 14.7024 123.988C16.9963 126.258 19.837 127.898 22.95 128.75C34.56 131.855 81 131.855 81 131.855C81 131.855 127.44 131.855 139.05 128.75C142.228 127.851 145.112 126.129 147.411 123.759C149.71 121.389 151.343 118.453 152.145 115.25C154.253 103.556 155.293 91.6948 155.25 79.8125C155.326 67.7499 154.286 55.7062 152.145 43.835V43.835Z" stroke="#989898" stroke-width="4" stroke-linecap="round" stroke-linejoin="round"/>
<path d="M65.8125 101.885L104.625 79.8125L65.8125 57.74V101.885Z" stroke="#989898" stroke-width="4" stroke-linecap="round" stroke-linejoin="round"/>
</g>
</svg>
