<svg width="14" height="14" viewBox="0 0 14 14" fill="none" xmlns="http://www.w3.org/2000/svg">
<path d="M13.5463 1.93945H0.453725C0.203154 1.93945 0 2.14264 0 2.39324V11.6066C0 11.8572 0.203154 12.0604 0.453725 12.0604H13.5462C13.7968 12.0604 14 11.8573 14 11.6066V2.39324C14 2.14264 13.7969 1.93945 13.5463 1.93945ZM12.3887 9.72486C12.5808 9.89162 12.6014 10.1825 12.4346 10.3747C12.2679 10.5668 11.977 10.5875 11.7848 10.4206C11.6657 10.3173 8.66196 7.71034 8.54621 7.60988L7.30195 8.6898C7.21535 8.76498 7.10767 8.80257 7 8.80257C6.89233 8.80257 6.78465 8.76498 6.69805 8.6898L5.45379 7.60988C5.33801 7.71037 2.33429 10.3173 2.21525 10.4206C2.02309 10.5874 1.73213 10.5669 1.56537 10.3747C1.39861 10.1825 1.41919 9.89162 1.61135 9.72486L4.751 6.9999L1.61135 4.275C1.41922 4.10824 1.39864 3.81731 1.56537 3.62515C1.73216 3.43302 2.02309 3.41239 2.21525 3.57921C2.37095 3.71434 6.71731 7.48661 7 7.73196C7.24483 7.51947 11.616 3.72567 11.7848 3.57921C11.9769 3.41242 12.2679 3.43296 12.4346 3.62515C12.6014 3.81731 12.5808 4.10827 12.3887 4.275L9.249 6.9999L12.3887 9.72486Z" fill="#264796"/>
</svg>
