<svg width="16" height="16" viewBox="0 0 16 16" fill="none" xmlns="http://www.w3.org/2000/svg">
<path d="M8.00005 0C5.14902 0 2.83777 2.31122 2.83777 5.16225C2.83777 5.64033 2.90304 6.10305 3.02467 6.54237C3.07336 6.7183 3.13086 6.89055 3.19718 7.05838L3.35372 7.41411L8.00005 16L12.6525 7.40193L12.7936 7.08134C12.8638 6.90622 12.9246 6.72637 12.9755 6.5424C13.0971 6.10305 13.1624 5.64033 13.1624 5.16229C13.1623 2.31122 10.8511 0 8.00005 0ZM8.00005 7.64966C6.6026 7.64966 5.46588 6.51295 5.46588 5.11549C5.46588 3.71827 6.6026 2.58155 8.00005 2.58155C9.39751 2.58155 10.5342 3.71827 10.5342 5.11549C10.5342 6.51295 9.39751 7.64966 8.00005 7.64966Z" fill="#264796"/>
</svg>
