<svg width="20" height="19" viewBox="0 0 20 19" fill="none" xmlns="http://www.w3.org/2000/svg">
<g clip-path="url(#clip0_211_2634)">
<path d="M1.13653 9.12811L5.46393 10.7432L7.1389 16.1299C7.24607 16.4749 7.66794 16.6024 7.94796 16.3735L10.3601 14.407C10.613 14.201 10.9731 14.1908 11.2374 14.3826L15.5881 17.5413C15.8876 17.759 16.312 17.5948 16.3871 17.2329L19.5742 1.90231C19.6562 1.50692 19.2677 1.17707 18.8912 1.32268L1.13146 8.17387C0.693184 8.34289 0.697002 8.9634 1.13653 9.12811ZM6.86896 9.88346L15.3263 4.67456C15.4783 4.58122 15.6347 4.78674 15.5042 4.90782L8.5244 11.3958C8.27906 11.6242 8.1208 11.9298 8.07598 12.2616L7.83822 14.0236C7.80673 14.2588 7.47626 14.2822 7.41134 14.0545L6.49692 10.8414C6.39219 10.475 6.54481 10.0835 6.86896 9.88346Z" fill="#33395B"/>
</g>
<defs>
<clipPath id="clip0_211_2634">
<rect width="18.7805" height="18.7805" fill="white" transform="translate(0.80481 0.0732422)"/>
</clipPath>
</defs>
</svg>
