<svg width="23" height="23" viewBox="0 0 23 23" fill="none" xmlns="http://www.w3.org/2000/svg">
<path d="M21.7558 5.76953L21.7493 5.74349C21.2228 3.61514 18.8493 1.3313 16.6696 0.856168L16.645 0.851106C13.1194 0.178538 9.54468 0.178538 6.01984 0.851106L5.99453 0.856168C3.81556 1.3313 1.44204 3.61514 0.914838 5.74349L0.909052 5.76953C0.25818 8.74184 0.25818 11.7561 0.909052 14.7284L0.914838 14.7545C1.41955 16.792 3.61632 18.9709 5.71466 19.5701V21.9459C5.71466 22.8058 6.76256 23.2282 7.35847 22.6077L9.76561 20.1055C10.2877 20.1347 10.81 20.151 11.3324 20.151C13.1071 20.151 14.8826 19.9832 16.645 19.6469L16.6696 19.6419C18.8493 19.1667 21.2228 16.8829 21.7493 14.7545L21.7558 14.7285C22.4066 11.7561 22.4066 8.74184 21.7558 5.76953ZM19.8509 14.2974C19.4994 15.6859 17.6972 17.4122 16.2653 17.7311C14.3907 18.0876 12.5013 18.2399 10.6138 18.1877C10.5762 18.1866 10.5401 18.2012 10.514 18.2281C10.2461 18.503 8.7564 20.0323 8.7564 20.0323L6.88695 21.9509C6.75027 22.0934 6.51017 21.9965 6.51017 21.7998V17.864C6.51017 17.799 6.46374 17.7438 6.39988 17.7313C6.39952 17.7312 6.39916 17.7311 6.3988 17.731C4.96688 17.4121 3.16541 15.6859 2.81321 14.2973C2.22743 11.6107 2.22743 8.88713 2.81321 6.20048C3.16541 4.81195 4.96688 3.08569 6.3988 2.76677C9.67268 2.1441 12.9921 2.1441 16.2653 2.76677C17.6979 3.08569 19.4994 4.81195 19.8509 6.20048C20.4373 8.88721 20.4373 11.6107 19.8509 14.2974Z" fill="#33395B"/>
<path d="M14.4473 16.1141C14.2272 16.0473 14.0174 16.0024 13.8226 15.9216C11.8037 15.084 9.94567 14.0034 8.4739 12.3469C7.63695 11.4049 6.98189 10.3415 6.42814 9.21606C6.16555 8.68235 5.94425 8.12773 5.71869 7.57673C5.51301 7.07426 5.81596 6.55515 6.13496 6.17656C6.43429 5.82126 6.81946 5.54934 7.2366 5.34894C7.56218 5.19252 7.88335 5.2827 8.12113 5.55867C8.63517 6.1553 9.10735 6.78245 9.4897 7.47404C9.72481 7.89942 9.6603 8.41939 9.23419 8.70889C9.13063 8.77925 9.03626 8.86184 8.93978 8.94132C8.85517 9.01096 8.77555 9.08133 8.71755 9.17563C8.61153 9.34819 8.60646 9.55169 8.67473 9.73929C9.2002 11.1834 10.0859 12.3063 11.5394 12.9111C11.7719 13.0078 12.0055 13.1205 12.2735 13.0893C12.7222 13.0368 12.8675 12.5446 13.182 12.2875C13.4893 12.0361 13.8821 12.0328 14.2131 12.2423C14.5443 12.4519 14.8653 12.6769 15.1844 12.9043C15.4976 13.1274 15.8094 13.3458 16.0984 13.6002C16.3761 13.8448 16.4718 14.1658 16.3154 14.4978C16.029 15.1059 15.6123 15.6117 15.0112 15.9347C14.8415 16.0257 14.6387 16.0552 14.4473 16.1141C14.6387 16.0552 14.2272 16.0473 14.4473 16.1141Z" fill="#33395B"/>
<path d="M11.3379 4.65393C13.9786 4.72791 16.1476 6.48042 16.6124 9.09114C16.6915 9.53598 16.7198 9.99079 16.755 10.4423C16.7698 10.6322 16.6623 10.8126 16.4573 10.8151C16.2456 10.8176 16.1504 10.6405 16.1366 10.4507C16.1095 10.0749 16.0906 9.69747 16.0388 9.32481C15.7654 7.35765 14.1968 5.73018 12.2388 5.38096C11.9442 5.32838 11.6426 5.31457 11.3441 5.28325C11.1554 5.26344 10.9083 5.25201 10.8665 5.01748C10.8315 4.82084 10.9974 4.66427 11.1847 4.65422C11.2356 4.6514 11.2868 4.65371 11.3379 4.65393C11.2868 4.65371 13.9786 4.72791 11.3379 4.65393Z" fill="#33395B"/>
<path d="M15.351 9.85606C15.3467 9.88904 15.3443 9.96656 15.325 10.0396C15.255 10.3047 14.853 10.3379 14.7604 10.0703C14.733 9.99094 14.7289 9.90061 14.7288 9.81513C14.7278 9.25581 14.6062 8.69707 14.3242 8.21044C14.0343 7.71028 13.5913 7.28982 13.0718 7.0354C12.7576 6.88158 12.4179 6.78597 12.0736 6.72898C11.9231 6.7041 11.771 6.68899 11.6198 6.66794C11.4365 6.64249 11.3387 6.52569 11.3473 6.34511C11.3554 6.17588 11.4791 6.05417 11.6635 6.06459C12.2695 6.09901 12.8549 6.22998 13.3937 6.51528C14.4893 7.0955 15.1152 8.01134 15.2978 9.23426C15.3061 9.28966 15.3194 9.34455 15.3236 9.40016C15.3339 9.53749 15.3404 9.67497 15.351 9.85606C15.3404 9.67497 15.3467 9.88904 15.351 9.85606Z" fill="#33395B"/>
<path d="M13.7084 9.79223C13.4875 9.7962 13.3693 9.67391 13.3465 9.47135C13.3307 9.33011 13.3181 9.18699 13.2844 9.04958C13.2181 8.77896 13.0742 8.52816 12.8465 8.36233C12.7391 8.28401 12.6173 8.22695 12.4897 8.19014C12.3277 8.14335 12.1594 8.15622 11.9977 8.11659C11.8221 8.07356 11.725 7.93138 11.7526 7.76664C11.7777 7.61672 11.9235 7.49971 12.0873 7.51157C13.1112 7.58548 13.8429 8.11478 13.9473 9.32005C13.9547 9.4051 13.9634 9.49499 13.9445 9.57635C13.9122 9.71564 13.809 9.78543 13.7084 9.79223C13.809 9.78543 13.4875 9.7962 13.7084 9.79223Z" fill="#33395B"/>
</svg>
