<svg width="25" height="25" viewBox="0 0 25 25" fill="none" xmlns="http://www.w3.org/2000/svg">
<path fill-rule="evenodd" clip-rule="evenodd" d="M20.4952 4.42256C18.3774 2.30225 15.5609 1.13406 12.5603 1.13281C6.37738 1.13281 1.34536 6.1647 1.34287 12.3493C1.34204 14.3263 1.85851 16.2562 2.84018 17.9573L1.24878 23.77L7.19533 22.2101C8.83384 23.1039 10.6785 23.5749 12.5558 23.5755H12.5605C18.7427 23.5755 23.7753 18.5432 23.7777 12.3583C23.7789 9.3609 22.6132 6.54272 20.4952 4.42256ZM12.5603 21.6811H12.5565C10.8835 21.6804 9.24281 21.2308 7.81113 20.3815L7.47083 20.1793L3.94206 21.105L4.88394 17.6646L4.66218 17.3118C3.72887 15.8274 3.23603 14.1116 3.23686 12.35C3.23879 7.20951 7.42137 3.02735 12.5641 3.02735C15.0544 3.02818 17.3953 3.99921 19.1556 5.76153C20.9158 7.52384 21.8846 9.86631 21.8838 12.3576C21.8816 17.4985 17.6993 21.6811 12.5603 21.6811ZM17.6744 14.6983C17.3942 14.5579 16.0161 13.88 15.7592 13.7864C15.5024 13.6928 15.3154 13.6463 15.1287 13.9267C14.9418 14.2072 14.4047 14.8386 14.2411 15.0256C14.0775 15.2127 13.9142 15.2362 13.6339 15.0958C13.3535 14.9555 12.4505 14.6594 11.3798 13.7046C10.5467 12.9614 9.98422 12.0435 9.82063 11.7631C9.65731 11.4823 9.81925 11.3452 9.94359 11.1911C10.247 10.8143 10.5508 10.4193 10.6442 10.2323C10.7378 10.0452 10.6909 9.88151 10.6207 9.74127C10.5508 9.60103 9.9903 8.22144 9.75679 7.66007C9.5291 7.11376 9.29822 7.18754 9.12606 7.17898C8.96275 7.17082 8.77581 7.16917 8.58887 7.16917C8.40207 7.16917 8.09838 7.23922 7.84139 7.51997C7.58454 7.80059 6.86055 8.47857 6.86055 9.85816C6.86055 11.2378 7.86488 12.5705 8.00498 12.7576C8.14508 12.9447 9.98145 15.7757 12.793 16.9896C13.4617 17.2787 13.9837 17.451 14.3909 17.5801C15.0624 17.7935 15.6732 17.7634 16.1562 17.6912C16.6948 17.6107 17.8144 17.0131 18.0482 16.3585C18.2817 15.7037 18.2817 15.1426 18.2115 15.0256C18.1416 14.9087 17.9546 14.8386 17.6744 14.6983Z" fill="#33395B"/>
</svg>
